<?xml version="1.0" encoding="UTF-8"?>
<svg width="214px" height="40px" viewBox="0 0 214 40" version="1.1" xmlns="http://www.w3.org/2000/svg" xmlns:xlink="http://www.w3.org/1999/xlink">
    <!-- Generator: Sketch 40.3 (33839) - http://www.bohemiancoding.com/sketch -->
    <title>Group 2</title>
    <desc>Created with Sketch.</desc>
    <defs>
        <linearGradient x1="100%" y1="0%" x2="0.870934311%" y2="99.1290657%" id="linearGradient-1">
            <stop stop-color="#71D2FB" offset="0%"></stop>
            <stop stop-color="#9688E4" offset="100%"></stop>
        </linearGradient>
        <polygon id="path-2" points="32.5237042 39.99992 0 39.99992 0 0.00024 32.5237042 0.00024 32.5237042 39.99992"></polygon>
    </defs>
    <g id="Page-1" stroke="none" stroke-width="1" fill="none" fill-rule="evenodd">
        <g id="Artboard" transform="translate(-293.000000, -380.000000)">
            <g id="Group-2" transform="translate(293.000000, 380.000000)">
                <g id="Group">
                    <polygon id="Page-1" fill="url(#linearGradient-1)" points="0 39.99984 40 39.99984 40 0.00064 0 0.00064"></polygon>
                    <g id="Page-1">
                        <mask id="mask-3" fill="white">
                            <use xlink:href="#path-2"></use>
                        </mask>
                        <g id="Clip-2"></g>
                        <path d="M12.41904,14.42984 C12.24944,14.03464 11.79744,14.03464 11.62864,14.42984 L6.94064,26.12984 C6.89904,26.22744 6.87824,26.31864 6.87584,26.39944 L17.17104,26.39944 C17.16944,26.31864 17.14864,26.22744 17.10704,26.12984 L12.41904,14.42984 Z M32.50784,40.00024 L23.43744,40.00024 C23.41664,39.96744 23.39104,39.93944 23.37584,39.90104 L20.55184,33.80184 C20.51424,33.70744 20.44784,33.65864 20.38784,33.60024 L3.58064,33.60024 C3.52224,33.65464 3.47184,33.71944 3.43904,33.80184 L0.61504,39.90104 C0.59984,39.93944 0.57744,39.96744 0.55824,40.00024 L-0.00016,40.00024 L-0.00016,21.41224 L9.54064,0.00024 L14.56544,0.00024 L32.46864,39.61864 C32.53184,39.76744 32.53424,39.89224 32.50784,40.00024 L32.50784,40.00024 Z" id="Fill-1" fill="#FFFFFF" mask="url(#mask-3)"></path>
                    </g>
                </g>
                <path d="M114.41296,11.087 L112.06396,11.087 C111.91396,11.087 111.81396,11.187 111.81396,11.337 L111.81396,21.234 C111.76396,24.759 110.11396,26.433 107.16496,26.433 C104.18996,26.433 102.51596,24.759 102.51596,21.234 L102.51596,11.337 C102.51596,11.187 102.41596,11.087 102.26596,11.087 L99.9169596,11.087 C99.7669596,11.087 99.6669596,11.187 99.6669596,11.337 L99.6669596,21.234 C99.6669596,24.584 101.04096,28.983 107.16496,28.983 C113.28796,28.983 114.66296,24.584 114.66296,21.234 L114.66296,11.337 C114.66296,11.187 114.56296,11.087 114.41296,11.087 L114.41296,11.087 Z M90.3629596,23.684 L88.3389596,21.734 C88.2389596,21.634 88.0889596,21.634 87.9889596,21.734 L86.5889596,23.234 C86.4889596,23.359 86.4889596,23.484 86.6139596,23.584 L88.6139596,25.533 C87.6889596,26.108 86.5889596,26.433 85.3889596,26.433 C82.0399596,26.433 79.4409596,24.009 79.4409596,19.985 C79.4409596,15.986 82.0399596,13.561 85.3889596,13.561 C88.7139596,13.561 91.3129596,15.986 91.3129596,19.985 C91.3129596,21.434 90.9629596,22.684 90.3629596,23.684 L90.3629596,23.684 Z M92.3879596,25.608 C93.5119596,24.084 94.1369596,22.159 94.1369596,19.985 C94.1369596,14.836 90.5379596,11.012 85.3889596,11.012 C80.2409596,11.012 76.5919596,14.836 76.5919596,19.985 C76.5919596,25.134 80.2409596,28.983 85.3889596,28.983 C87.3889596,28.983 89.1379596,28.408 90.5629596,27.383 L92.7129596,29.457 C92.8129596,29.557 92.9379596,29.532 93.0619596,29.457 L94.4619596,27.933 C94.5619596,27.808 94.5619596,27.683 94.4369596,27.583 L92.3879596,25.608 Z M121.17196,21.053 L133.17196,21.053 L133.17196,18.053 L121.17196,18.053 L121.17196,21.053 Z M121.17196,29.053 L133.17196,29.053 L133.17196,26.053 L121.17196,26.053 L121.17196,29.053 Z M121.17196,14.053 L133.17196,14.053 L133.17196,11.053 L121.17196,11.053 L121.17196,14.053 Z M170.72496,11.075 L159.20296,11.075 C159.05296,11.075 158.95296,11.175 158.95296,11.325 L158.95296,13.375 C158.95296,13.525 159.05296,13.625 159.20296,13.625 L163.30196,13.625 C163.45196,13.625 163.55196,13.725 163.55196,13.875 L163.55196,28.646 C163.55196,28.796 163.65196,28.896 163.80196,28.896 L166.12696,28.896 C166.27696,28.896 166.37696,28.796 166.37696,28.646 L166.37696,13.875 C166.37696,13.725 166.47596,13.625 166.62696,13.625 L170.72496,13.625 C170.87496,13.625 170.97496,13.525 170.97496,13.375 L170.97496,11.325 C170.97496,11.175 170.87496,11.075 170.72496,11.075 L170.72496,11.075 Z M152.94996,11.075 L150.60096,11.075 C150.45096,11.075 150.35096,11.175 150.35096,11.325 L150.35096,22.897 C150.35096,23.122 150.22596,23.247 150.05096,23.022 L141.25296,11.225 C141.17796,11.125 141.07796,11.075 140.95296,11.075 L139.37896,11.075 C139.22896,11.075 139.12896,11.175 139.12896,11.325 L139.12896,28.646 C139.12896,28.796 139.22896,28.896 139.37896,28.896 L141.72796,28.896 C141.87796,28.896 141.97796,28.796 141.97796,28.646 L141.97796,17.074 C141.97796,16.849 142.10296,16.724 142.27796,16.949 L151.10096,28.746 C151.17596,28.846 151.27596,28.896 151.40096,28.896 L152.94996,28.896 C153.09996,28.896 153.19996,28.796 153.19996,28.646 L153.19996,11.325 C153.19996,11.175 153.09996,11.075 152.94996,11.075 L152.94996,11.075 Z M184.25196,20.548 L180.17796,20.548 C180.02796,20.548 179.92796,20.448 179.92796,20.298 L179.92796,13.875 C179.92796,13.725 180.02796,13.625 180.17796,13.625 L183.92696,13.625 C185.90196,13.625 187.65096,14.699 187.65096,17.099 C187.65096,19.398 185.72696,20.548 184.25196,20.548 L184.25196,20.548 Z M190.50096,17.099 C190.50096,13.475 187.80096,11.075 184.22696,11.075 L177.32896,11.075 C177.17896,11.075 177.07896,11.175 177.07896,11.325 L177.07896,28.646 C177.07896,28.796 177.17896,28.896 177.32896,28.896 L179.67896,28.896 C179.82796,28.896 179.92796,28.796 179.92796,28.646 L179.92796,23.347 C179.92796,23.197 180.02796,23.097 180.17796,23.097 L184.25196,23.097 C184.37696,23.097 184.47696,23.147 184.55196,23.272 L187.32596,28.721 C187.37696,28.846 187.50096,28.896 187.62596,28.896 L190.17596,28.896 C190.35096,28.896 190.45096,28.771 190.35096,28.596 L187.25196,22.722 C187.17596,22.597 187.20196,22.422 187.32596,22.372 C189.10096,21.373 190.50096,19.673 190.50096,17.099 L190.50096,17.099 Z M204.50096,26.421 C201.15196,26.421 198.55296,23.997 198.55296,19.973 C198.55296,15.974 201.15196,13.55 204.50096,13.55 C207.82496,13.55 210.42396,15.974 210.42396,19.973 C210.42396,23.997 207.82496,26.421 204.50096,26.421 L204.50096,26.421 Z M204.50096,11 C199.35196,11 195.70296,14.824 195.70296,19.973 C195.70296,25.122 199.35196,28.971 204.50096,28.971 C209.64996,28.971 213.24896,25.122 213.24896,19.973 C213.24896,14.824 209.64996,11 204.50096,11 L204.50096,11 Z M65.5259596,11.25 C65.4759596,11.125 65.3509596,11.075 65.2259596,11.075 L64.0519596,11.075 C63.9269596,11.075 63.8019596,11.125 63.7519596,11.25 L56.0289596,28.596 C55.9539596,28.771 56.0289596,28.896 56.2039596,28.896 L58.8279596,28.896 C58.8599596,28.896 58.8849596,28.882 58.9129596,28.875 L64.4769596,16.049 C64.5509596,15.874 64.7519596,15.874 64.8269596,16.049 L70.4359596,28.887 C70.4499596,28.888 70.4609596,28.896 70.4749596,28.896 L73.0739596,28.896 C73.2489596,28.896 73.3239596,28.771 73.2489596,28.596 L65.5259596,11.25 Z" id="Fill-1" fill="#222222"></path>
            </g>
        </g>
    </g>
</svg>