<?xml version="1.0" encoding="UTF-8"?>
<svg width="157px" height="18px" viewBox="0 0 157 18" version="1.1" xmlns="http://www.w3.org/2000/svg" xmlns:xlink="http://www.w3.org/1999/xlink">
    <!-- Generator: Sketch 40.3 (33839) - http://www.bohemiancoding.com/sketch -->
    <title>Fill 1</title>
    <desc>Created with Sketch.</desc>
    <defs></defs>
    <g id="Page-1" stroke="none" stroke-width="1" fill="none" fill-rule="evenodd">
        <g id="Artboard" transform="translate(-349.000000, -391.000000)" fill="#222222">
            <g id="Group-2" transform="translate(293.000000, 380.000000)">
                <path d="M114.320479,11.0845437 L111.975198,11.0845437 C111.825436,11.0845437 111.725594,11.1817205 111.725594,11.3274855 L111.725594,20.9450647 C111.675673,24.3705437 110.028285,25.9972819 107.083954,25.9972819 C104.113664,25.9972819 102.442315,24.3705437 102.442315,20.9450647 L102.442315,11.3274855 C102.442315,11.1817205 102.342473,11.0845437 102.19271,11.0845437 L99.8474294,11.0845437 C99.6976669,11.0845437 99.5978252,11.1817205 99.5978252,11.3274855 L99.5978252,20.9450647 C99.5978252,24.2004845 100.96965,28.475288 107.083954,28.475288 C113.19726,28.475288 114.570083,24.2004845 114.570083,20.9450647 L114.570083,11.3274855 C114.570083,11.1817205 114.470242,11.0845437 114.320479,11.0845437 L114.320479,11.0845437 Z M90.3085555,23.3258941 L88.2877599,21.4309482 C88.1879182,21.3337715 88.0381557,21.3337715 87.9383141,21.4309482 L86.5405306,22.8885989 C86.4406889,23.0100698 86.4406889,23.1315407 86.565491,23.2287174 L88.5623245,25.1226915 C87.638789,25.6814576 86.5405306,25.9972819 85.3424304,25.9972819 C81.9987326,25.9972819 79.4038474,23.6417184 79.4038474,19.7313275 C79.4038474,15.8452308 81.9987326,13.4886956 85.3424304,13.4886956 C88.6621662,13.4886956 91.2570514,15.8452308 91.2570514,19.7313275 C91.2570514,21.1394181 90.9076056,22.354127 90.3085555,23.3258941 L90.3085555,23.3258941 Z M92.3303495,25.195574 C93.4525699,23.7146009 94.0765804,21.8439492 94.0765804,19.7313275 C94.0765804,14.7276987 90.4832784,11.0116612 85.3424304,11.0116612 C80.2025808,11.0116612 76.559358,14.7276987 76.559358,19.7313275 C76.559358,24.7349564 80.2025808,28.475288 85.3424304,28.475288 C87.339264,28.475288 89.0854949,27.916522 90.5082388,26.9204607 L92.6548349,28.9359057 C92.7546766,29.0330824 92.8794787,29.0087882 93.0032824,28.9359057 L94.4010659,27.4549326 C94.5009076,27.3334617 94.5009076,27.2119908 94.3761055,27.1148141 L92.3303495,25.195574 Z M121.068778,20.7691748 L133.049779,20.7691748 L133.049779,17.8538735 L121.068778,17.8538735 L121.068778,20.7691748 Z M121.068778,28.5433117 L133.049779,28.5433117 L133.049779,25.6280104 L121.068778,25.6280104 L121.068778,28.5433117 Z M121.068778,13.966805 L133.049779,13.966805 L133.049779,11.0515037 L121.068778,11.0515037 L121.068778,13.966805 Z M170.543325,11.0728825 L159.039567,11.0728825 C158.889804,11.0728825 158.789962,11.1700592 158.789962,11.3158243 L158.789962,13.3079469 C158.789962,13.453712 158.889804,13.5508887 159.039567,13.5508887 L163.132077,13.5508887 C163.28184,13.5508887 163.381681,13.6480654 163.381681,13.7938305 L163.381681,28.1478025 C163.381681,28.2935676 163.481523,28.3907443 163.631285,28.3907443 L165.952604,28.3907443 C166.102367,28.3907443 166.202209,28.2935676 166.202209,28.1478025 L166.202209,13.7938305 C166.202209,13.6480654 166.301052,13.5508887 166.451813,13.5508887 L170.543325,13.5508887 C170.693087,13.5508887 170.792929,13.453712 170.792929,13.3079469 L170.792929,11.3158243 C170.792929,11.1700592 170.693087,11.0728825 170.543325,11.0728825 L170.543325,11.0728825 Z M152.796467,11.0728825 L150.451186,11.0728825 C150.301423,11.0728825 150.201581,11.1700592 150.201581,11.3158243 L150.201581,22.5611134 C150.201581,22.779761 150.076779,22.9012319 149.902056,22.6825843 L141.117985,11.2186476 C141.043104,11.1214709 140.943263,11.0728825 140.81846,11.0728825 L139.246952,11.0728825 C139.09719,11.0728825 138.997348,11.1700592 138.997348,11.3158243 L138.997348,28.1478025 C138.997348,28.2935676 139.09719,28.3907443 139.246952,28.3907443 L141.592233,28.3907443 C141.741996,28.3907443 141.841838,28.2935676 141.841838,28.1478025 L141.841838,16.9025135 C141.841838,16.6838659 141.96664,16.562395 142.141363,16.7810426 L150.950394,28.2449792 C151.025275,28.342156 151.125117,28.3907443 151.249919,28.3907443 L152.796467,28.3907443 C152.946229,28.3907443 153.046071,28.2935676 153.046071,28.1478025 L153.046071,11.3158243 C153.046071,11.1700592 152.946229,11.0728825 152.796467,11.0728825 L152.796467,11.0728825 Z M184.048909,20.2784324 L179.981359,20.2784324 C179.831596,20.2784324 179.731754,20.1812557 179.731754,20.0354906 L179.731754,13.7938305 C179.731754,13.6480654 179.831596,13.5508887 179.981359,13.5508887 L183.724423,13.5508887 C185.696296,13.5508887 187.442527,14.5945666 187.442527,16.9268076 C187.442527,19.1609002 185.521573,20.2784324 184.048909,20.2784324 L184.048909,20.2784324 Z M190.288015,16.9268076 C190.288015,13.4051236 187.59229,11.0728825 184.023948,11.0728825 L177.136869,11.0728825 C176.987107,11.0728825 176.887265,11.1700592 176.887265,11.3158243 L176.887265,28.1478025 C176.887265,28.2935676 176.987107,28.3907443 177.136869,28.3907443 L179.483149,28.3907443 C179.631913,28.3907443 179.731754,28.2935676 179.731754,28.1478025 L179.731754,22.9984086 C179.731754,22.8526435 179.831596,22.7554668 179.981359,22.7554668 L184.048909,22.7554668 C184.173711,22.7554668 184.273552,22.8040552 184.348434,22.925526 L187.118042,28.2206851 C187.168961,28.342156 187.292765,28.3907443 187.417567,28.3907443 L189.96353,28.3907443 C190.138253,28.3907443 190.238094,28.2692734 190.138253,28.0992142 L187.044159,22.3910541 C186.968279,22.2695832 186.994238,22.099524 187.118042,22.0509356 C188.890232,21.0801403 190.288015,19.4281362 190.288015,16.9268076 L190.288015,16.9268076 Z M204.26585,25.9856207 C200.922152,25.9856207 198.327267,23.6300572 198.327267,19.7196663 C198.327267,15.8335696 200.922152,13.4780061 204.26585,13.4780061 C207.584587,13.4780061 210.179473,15.8335696 210.179473,19.7196663 C210.179473,23.6300572 207.584587,25.9856207 204.26585,25.9856207 L204.26585,25.9856207 Z M204.26585,11 C199.125002,11 195.481779,14.7160375 195.481779,19.7196663 C195.481779,24.7232952 199.125002,28.4636268 204.26585,28.4636268 C209.406698,28.4636268 213,24.7232952 213,19.7196663 C213,14.7160375 209.406698,11 204.26585,11 L204.26585,11 Z M65.5108779,11.2429418 C65.4609571,11.1214709 65.336155,11.0728825 65.2113529,11.0728825 L64.0392116,11.0728825 C63.9144095,11.0728825 63.7896074,11.1214709 63.7396865,11.2429418 L56.0289137,28.0992142 C55.9540325,28.2692734 56.0289137,28.3907443 56.2036367,28.3907443 L58.8234823,28.3907443 C58.8554316,28.3907443 58.8803921,28.3771396 58.9083477,28.3703372 L64.4635387,15.9064522 C64.5374215,15.7363929 64.7381033,15.7363929 64.8129846,15.9064522 L70.4131043,28.3819984 C70.4270821,28.3829702 70.4380647,28.3907443 70.4520426,28.3907443 L73.0469278,28.3907443 C73.2216507,28.3907443 73.296532,28.2692734 73.2216507,28.0992142 L65.5108779,11.2429418 Z" id="Fill-1"></path>
            </g>
        </g>
    </g>
</svg>