<?xml version="1.0" encoding="UTF-8"?>
<svg width="14px" height="16px" viewBox="0 0 14 16" version="1.1" xmlns="http://www.w3.org/2000/svg" xmlns:xlink="http://www.w3.org/1999/xlink">
    <!-- Generator: Sketch 40.3 (33839) - http://www.bohemiancoding.com/sketch -->
    <title>Page 1 Copy 3</title>
    <desc>Created with Sketch.</desc>
    <defs></defs>
    <g id="Page-1" stroke="none" stroke-width="1" fill="none" fill-rule="evenodd">
        <g id="Artboard" transform="translate(-381.000000, -192.000000)" fill="#475764">
            <path d="M393,200.375 L393,201.625 C393,201.729 392.964,201.818 392.891,201.891 C392.818,201.964 392.729,202 392.625,202 L391.375,202 C391.271,202 391.182,201.964 391.109,201.891 C391.036,201.818 391,201.729 391,201.625 L391,200.375 C391,200.271 391.036,200.182 391.109,200.109 C391.182,200.036 391.271,200 391.375,200 L392.625,200 C392.729,200 392.818,200.036 392.891,200.109 C392.964,200.182 393,200.271 393,200.375 L393,200.375 Z M393,204.375 L393,205.625 C393,205.729 392.964,205.818 392.891,205.891 C392.818,205.964 392.729,206 392.625,206 L391.375,206 C391.271,206 391.182,205.964 391.109,205.891 C391.036,205.818 391,205.729 391,205.625 L391,204.375 C391,204.271 391.036,204.182 391.109,204.109 C391.182,204.036 391.271,204 391.375,204 L392.625,204 C392.729,204 392.818,204.036 392.891,204.109 C392.964,204.182 393,204.271 393,204.375 L393,204.375 Z M389,200.375 L389,201.625 C389,201.729 388.964,201.818 388.891,201.891 C388.818,201.964 388.729,202 388.625,202 L387.375,202 C387.271,202 387.182,201.964 387.109,201.891 C387.036,201.818 387,201.729 387,201.625 L387,200.375 C387,200.271 387.036,200.182 387.109,200.109 C387.182,200.036 387.271,200 387.375,200 L388.625,200 C388.729,200 388.818,200.036 388.891,200.109 C388.964,200.182 389,200.271 389,200.375 L389,200.375 Z M389,204.375 L389,205.625 C389,205.729 388.964,205.818 388.891,205.891 C388.818,205.964 388.729,206 388.625,206 L387.375,206 C387.271,206 387.182,205.964 387.109,205.891 C387.036,205.818 387,205.729 387,205.625 L387,204.375 C387,204.271 387.036,204.182 387.109,204.109 C387.182,204.036 387.271,204 387.375,204 L388.625,204 C388.729,204 388.818,204.036 388.891,204.109 C388.964,204.182 389,204.271 389,204.375 L389,204.375 Z M385,200.375 L385,201.625 C385,201.729 384.964,201.818 384.891,201.891 C384.818,201.964 384.729,202 384.625,202 L383.375,202 C383.271,202 383.182,201.964 383.109,201.891 C383.036,201.818 383,201.729 383,201.625 L383,200.375 C383,200.271 383.036,200.182 383.109,200.109 C383.182,200.036 383.271,200 383.375,200 L384.625,200 C384.729,200 384.818,200.036 384.891,200.109 C384.964,200.182 385,200.271 385,200.375 L385,200.375 Z M385,204.375 L385,205.625 C385,205.729 384.964,205.818 384.891,205.891 C384.818,205.964 384.729,206 384.625,206 L383.375,206 C383.271,206 383.182,205.964 383.109,205.891 C383.036,205.818 383,205.729 383,205.625 L383,204.375 C383,204.271 383.036,204.182 383.109,204.109 C383.182,204.036 383.271,204 383.375,204 L384.625,204 C384.729,204 384.818,204.036 384.891,204.109 C384.964,204.182 385,204.271 385,204.375 L385,204.375 Z M381.375,198 C381.271,198 381.182,198.036 381.109,198.109 C381.036,198.182 381,198.271 381,198.375 L381,206.5 C381,206.917 381.146,207.271 381.437,207.562 C381.729,207.854 382.083,208 382.5,208 L393.5,208 C393.917,208 394.271,207.854 394.562,207.562 C394.854,207.271 395,206.917 395,206.5 L395,198.375 C395,198.271 394.964,198.182 394.891,198.109 C394.818,198.036 394.729,198 394.625,198 L381.375,198 Z M394.625,197 C394.729,197 394.818,196.964 394.891,196.891 C394.964,196.818 395,196.729 395,196.625 L395,195.5 C395,195.083 394.854,194.729 394.562,194.438 C394.271,194.146 393.917,194 393.5,194 L392,194 L392,192.375 C392,192.271 391.964,192.182 391.891,192.109 C391.818,192.036 391.729,192 391.625,192 L390.375,192 C390.271,192 390.182,192.036 390.109,192.109 C390.036,192.182 390,192.271 390,192.375 L390,194 L386,194 L386,192.375 C386,192.271 385.964,192.182 385.891,192.109 C385.818,192.036 385.729,192 385.625,192 L384.375,192 C384.271,192 384.182,192.036 384.109,192.109 C384.036,192.182 384,192.271 384,192.375 L384,194 L382.5,194 C382.083,194 381.729,194.146 381.437,194.438 C381.146,194.729 381,195.083 381,195.5 L381,196.625 C381,196.729 381.036,196.818 381.109,196.891 C381.182,196.964 381.271,197 381.375,197 L394.625,197 Z" id="Page-1-Copy-3"></path>
        </g>
    </g>
</svg>