<?xml version="1.0" encoding="UTF-8"?>
<svg width="14px" height="16px" viewBox="0 0 14 16" version="1.1" xmlns="http://www.w3.org/2000/svg" xmlns:xlink="http://www.w3.org/1999/xlink">
    <!-- Generator: Sketch 40.3 (33839) - http://www.bohemiancoding.com/sketch -->
    <title>Page 1</title>
    <desc>Created with Sketch.</desc>
    <defs></defs>
    <g id="Page-1" stroke="none" stroke-width="1" fill="none" fill-rule="evenodd">
        <g id="Artboard" transform="translate(-293.000000, -192.000000)" fill="#9F9F9F">
            <path d="M305,200.375 L305,201.625 C305,201.729 304.964,201.818 304.891,201.891 C304.818,201.964 304.729,202 304.625,202 L303.375,202 C303.271,202 303.182,201.964 303.109,201.891 C303.036,201.818 303,201.729 303,201.625 L303,200.375 C303,200.271 303.036,200.182 303.109,200.109 C303.182,200.036 303.271,200 303.375,200 L304.625,200 C304.729,200 304.818,200.036 304.891,200.109 C304.964,200.182 305,200.271 305,200.375 L305,200.375 Z M305,204.375 L305,205.625 C305,205.729 304.964,205.818 304.891,205.891 C304.818,205.964 304.729,206 304.625,206 L303.375,206 C303.271,206 303.182,205.964 303.109,205.891 C303.036,205.818 303,205.729 303,205.625 L303,204.375 C303,204.271 303.036,204.182 303.109,204.109 C303.182,204.036 303.271,204 303.375,204 L304.625,204 C304.729,204 304.818,204.036 304.891,204.109 C304.964,204.182 305,204.271 305,204.375 L305,204.375 Z M301,200.375 L301,201.625 C301,201.729 300.964,201.818 300.891,201.891 C300.818,201.964 300.729,202 300.625,202 L299.375,202 C299.271,202 299.182,201.964 299.109,201.891 C299.036,201.818 299,201.729 299,201.625 L299,200.375 C299,200.271 299.036,200.182 299.109,200.109 C299.182,200.036 299.271,200 299.375,200 L300.625,200 C300.729,200 300.818,200.036 300.891,200.109 C300.964,200.182 301,200.271 301,200.375 L301,200.375 Z M301,204.375 L301,205.625 C301,205.729 300.964,205.818 300.891,205.891 C300.818,205.964 300.729,206 300.625,206 L299.375,206 C299.271,206 299.182,205.964 299.109,205.891 C299.036,205.818 299,205.729 299,205.625 L299,204.375 C299,204.271 299.036,204.182 299.109,204.109 C299.182,204.036 299.271,204 299.375,204 L300.625,204 C300.729,204 300.818,204.036 300.891,204.109 C300.964,204.182 301,204.271 301,204.375 L301,204.375 Z M297,200.375 L297,201.625 C297,201.729 296.964,201.818 296.891,201.891 C296.818,201.964 296.729,202 296.625,202 L295.375,202 C295.271,202 295.182,201.964 295.109,201.891 C295.036,201.818 295,201.729 295,201.625 L295,200.375 C295,200.271 295.036,200.182 295.109,200.109 C295.182,200.036 295.271,200 295.375,200 L296.625,200 C296.729,200 296.818,200.036 296.891,200.109 C296.964,200.182 297,200.271 297,200.375 L297,200.375 Z M297,204.375 L297,205.625 C297,205.729 296.964,205.818 296.891,205.891 C296.818,205.964 296.729,206 296.625,206 L295.375,206 C295.271,206 295.182,205.964 295.109,205.891 C295.036,205.818 295,205.729 295,205.625 L295,204.375 C295,204.271 295.036,204.182 295.109,204.109 C295.182,204.036 295.271,204 295.375,204 L296.625,204 C296.729,204 296.818,204.036 296.891,204.109 C296.964,204.182 297,204.271 297,204.375 L297,204.375 Z M293.375,198 C293.271,198 293.182,198.036 293.109,198.109 C293.036,198.182 293,198.271 293,198.375 L293,206.5 C293,206.917 293.146,207.271 293.437,207.562 C293.729,207.854 294.083,208 294.5,208 L305.5,208 C305.917,208 306.271,207.854 306.562,207.562 C306.854,207.271 307,206.917 307,206.5 L307,198.375 C307,198.271 306.964,198.182 306.891,198.109 C306.818,198.036 306.729,198 306.625,198 L293.375,198 Z M306.625,197 C306.729,197 306.818,196.964 306.891,196.891 C306.964,196.818 307,196.729 307,196.625 L307,195.5 C307,195.083 306.854,194.729 306.562,194.438 C306.271,194.146 305.917,194 305.5,194 L304,194 L304,192.375 C304,192.271 303.964,192.182 303.891,192.109 C303.818,192.036 303.729,192 303.625,192 L302.375,192 C302.271,192 302.182,192.036 302.109,192.109 C302.036,192.182 302,192.271 302,192.375 L302,194 L298,194 L298,192.375 C298,192.271 297.964,192.182 297.891,192.109 C297.818,192.036 297.729,192 297.625,192 L296.375,192 C296.271,192 296.182,192.036 296.109,192.109 C296.036,192.182 296,192.271 296,192.375 L296,194 L294.5,194 C294.083,194 293.729,194.146 293.437,194.438 C293.146,194.729 293,195.083 293,195.5 L293,196.625 C293,196.729 293.036,196.818 293.109,196.891 C293.182,196.964 293.271,197 293.375,197 L306.625,197 Z" id="Page-1"></path>
        </g>
    </g>
</svg>