<?xml version="1.0" encoding="UTF-8"?>
<svg width="14px" height="16px" viewBox="0 0 14 16" version="1.1" xmlns="http://www.w3.org/2000/svg" xmlns:xlink="http://www.w3.org/1999/xlink">
    <!-- Generator: Sketch 40.3 (33839) - http://www.bohemiancoding.com/sketch -->
    <title>Page 1 Copy</title>
    <desc>Created with Sketch.</desc>
    <defs></defs>
    <g id="Page-1" stroke="none" stroke-width="1" fill="none" fill-rule="evenodd">
        <g id="Artboard" transform="translate(-337.000000, -192.000000)" fill="#FFFFFF">
            <path d="M349,200.375 L349,201.625 C349,201.729 348.964,201.818 348.891,201.891 C348.818,201.964 348.729,202 348.625,202 L347.375,202 C347.271,202 347.182,201.964 347.109,201.891 C347.036,201.818 347,201.729 347,201.625 L347,200.375 C347,200.271 347.036,200.182 347.109,200.109 C347.182,200.036 347.271,200 347.375,200 L348.625,200 C348.729,200 348.818,200.036 348.891,200.109 C348.964,200.182 349,200.271 349,200.375 L349,200.375 Z M349,204.375 L349,205.625 C349,205.729 348.964,205.818 348.891,205.891 C348.818,205.964 348.729,206 348.625,206 L347.375,206 C347.271,206 347.182,205.964 347.109,205.891 C347.036,205.818 347,205.729 347,205.625 L347,204.375 C347,204.271 347.036,204.182 347.109,204.109 C347.182,204.036 347.271,204 347.375,204 L348.625,204 C348.729,204 348.818,204.036 348.891,204.109 C348.964,204.182 349,204.271 349,204.375 L349,204.375 Z M345,200.375 L345,201.625 C345,201.729 344.964,201.818 344.891,201.891 C344.818,201.964 344.729,202 344.625,202 L343.375,202 C343.271,202 343.182,201.964 343.109,201.891 C343.036,201.818 343,201.729 343,201.625 L343,200.375 C343,200.271 343.036,200.182 343.109,200.109 C343.182,200.036 343.271,200 343.375,200 L344.625,200 C344.729,200 344.818,200.036 344.891,200.109 C344.964,200.182 345,200.271 345,200.375 L345,200.375 Z M345,204.375 L345,205.625 C345,205.729 344.964,205.818 344.891,205.891 C344.818,205.964 344.729,206 344.625,206 L343.375,206 C343.271,206 343.182,205.964 343.109,205.891 C343.036,205.818 343,205.729 343,205.625 L343,204.375 C343,204.271 343.036,204.182 343.109,204.109 C343.182,204.036 343.271,204 343.375,204 L344.625,204 C344.729,204 344.818,204.036 344.891,204.109 C344.964,204.182 345,204.271 345,204.375 L345,204.375 Z M341,200.375 L341,201.625 C341,201.729 340.964,201.818 340.891,201.891 C340.818,201.964 340.729,202 340.625,202 L339.375,202 C339.271,202 339.182,201.964 339.109,201.891 C339.036,201.818 339,201.729 339,201.625 L339,200.375 C339,200.271 339.036,200.182 339.109,200.109 C339.182,200.036 339.271,200 339.375,200 L340.625,200 C340.729,200 340.818,200.036 340.891,200.109 C340.964,200.182 341,200.271 341,200.375 L341,200.375 Z M341,204.375 L341,205.625 C341,205.729 340.964,205.818 340.891,205.891 C340.818,205.964 340.729,206 340.625,206 L339.375,206 C339.271,206 339.182,205.964 339.109,205.891 C339.036,205.818 339,205.729 339,205.625 L339,204.375 C339,204.271 339.036,204.182 339.109,204.109 C339.182,204.036 339.271,204 339.375,204 L340.625,204 C340.729,204 340.818,204.036 340.891,204.109 C340.964,204.182 341,204.271 341,204.375 L341,204.375 Z M337.375,198 C337.271,198 337.182,198.036 337.109,198.109 C337.036,198.182 337,198.271 337,198.375 L337,206.5 C337,206.917 337.146,207.271 337.437,207.562 C337.729,207.854 338.083,208 338.5,208 L349.5,208 C349.917,208 350.271,207.854 350.562,207.562 C350.854,207.271 351,206.917 351,206.5 L351,198.375 C351,198.271 350.964,198.182 350.891,198.109 C350.818,198.036 350.729,198 350.625,198 L337.375,198 Z M350.625,197 C350.729,197 350.818,196.964 350.891,196.891 C350.964,196.818 351,196.729 351,196.625 L351,195.5 C351,195.083 350.854,194.729 350.562,194.438 C350.271,194.146 349.917,194 349.5,194 L348,194 L348,192.375 C348,192.271 347.964,192.182 347.891,192.109 C347.818,192.036 347.729,192 347.625,192 L346.375,192 C346.271,192 346.182,192.036 346.109,192.109 C346.036,192.182 346,192.271 346,192.375 L346,194 L342,194 L342,192.375 C342,192.271 341.964,192.182 341.891,192.109 C341.818,192.036 341.729,192 341.625,192 L340.375,192 C340.271,192 340.182,192.036 340.109,192.109 C340.036,192.182 340,192.271 340,192.375 L340,194 L338.5,194 C338.083,194 337.729,194.146 337.437,194.438 C337.146,194.729 337,195.083 337,195.5 L337,196.625 C337,196.729 337.036,196.818 337.109,196.891 C337.182,196.964 337.271,197 337.375,197 L350.625,197 Z" id="Page-1-Copy"></path>
        </g>
    </g>
</svg>