<?xml version="1.0" encoding="UTF-8"?>
<svg width="14px" height="16px" viewBox="0 0 14 16" version="1.1" xmlns="http://www.w3.org/2000/svg" xmlns:xlink="http://www.w3.org/1999/xlink">
    <!-- Generator: Sketch 40.3 (33839) - http://www.bohemiancoding.com/sketch -->
    <title>Page 1 Copy 2</title>
    <desc>Created with Sketch.</desc>
    <defs></defs>
    <g id="Page-1" stroke="none" stroke-width="1" fill="none" fill-rule="evenodd">
        <g id="Artboard" transform="translate(-425.000000, -192.000000)" fill="#9688E4">
            <path d="M437,200.375 L437,201.625 C437,201.729 436.964,201.818 436.891,201.891 C436.818,201.964 436.729,202 436.625,202 L435.375,202 C435.271,202 435.182,201.964 435.109,201.891 C435.036,201.818 435,201.729 435,201.625 L435,200.375 C435,200.271 435.036,200.182 435.109,200.109 C435.182,200.036 435.271,200 435.375,200 L436.625,200 C436.729,200 436.818,200.036 436.891,200.109 C436.964,200.182 437,200.271 437,200.375 L437,200.375 Z M437,204.375 L437,205.625 C437,205.729 436.964,205.818 436.891,205.891 C436.818,205.964 436.729,206 436.625,206 L435.375,206 C435.271,206 435.182,205.964 435.109,205.891 C435.036,205.818 435,205.729 435,205.625 L435,204.375 C435,204.271 435.036,204.182 435.109,204.109 C435.182,204.036 435.271,204 435.375,204 L436.625,204 C436.729,204 436.818,204.036 436.891,204.109 C436.964,204.182 437,204.271 437,204.375 L437,204.375 Z M433,200.375 L433,201.625 C433,201.729 432.964,201.818 432.891,201.891 C432.818,201.964 432.729,202 432.625,202 L431.375,202 C431.271,202 431.182,201.964 431.109,201.891 C431.036,201.818 431,201.729 431,201.625 L431,200.375 C431,200.271 431.036,200.182 431.109,200.109 C431.182,200.036 431.271,200 431.375,200 L432.625,200 C432.729,200 432.818,200.036 432.891,200.109 C432.964,200.182 433,200.271 433,200.375 L433,200.375 Z M433,204.375 L433,205.625 C433,205.729 432.964,205.818 432.891,205.891 C432.818,205.964 432.729,206 432.625,206 L431.375,206 C431.271,206 431.182,205.964 431.109,205.891 C431.036,205.818 431,205.729 431,205.625 L431,204.375 C431,204.271 431.036,204.182 431.109,204.109 C431.182,204.036 431.271,204 431.375,204 L432.625,204 C432.729,204 432.818,204.036 432.891,204.109 C432.964,204.182 433,204.271 433,204.375 L433,204.375 Z M429,200.375 L429,201.625 C429,201.729 428.964,201.818 428.891,201.891 C428.818,201.964 428.729,202 428.625,202 L427.375,202 C427.271,202 427.182,201.964 427.109,201.891 C427.036,201.818 427,201.729 427,201.625 L427,200.375 C427,200.271 427.036,200.182 427.109,200.109 C427.182,200.036 427.271,200 427.375,200 L428.625,200 C428.729,200 428.818,200.036 428.891,200.109 C428.964,200.182 429,200.271 429,200.375 L429,200.375 Z M429,204.375 L429,205.625 C429,205.729 428.964,205.818 428.891,205.891 C428.818,205.964 428.729,206 428.625,206 L427.375,206 C427.271,206 427.182,205.964 427.109,205.891 C427.036,205.818 427,205.729 427,205.625 L427,204.375 C427,204.271 427.036,204.182 427.109,204.109 C427.182,204.036 427.271,204 427.375,204 L428.625,204 C428.729,204 428.818,204.036 428.891,204.109 C428.964,204.182 429,204.271 429,204.375 L429,204.375 Z M425.375,198 C425.271,198 425.182,198.036 425.109,198.109 C425.036,198.182 425,198.271 425,198.375 L425,206.5 C425,206.917 425.146,207.271 425.437,207.562 C425.729,207.854 426.083,208 426.5,208 L437.5,208 C437.917,208 438.271,207.854 438.562,207.562 C438.854,207.271 439,206.917 439,206.5 L439,198.375 C439,198.271 438.964,198.182 438.891,198.109 C438.818,198.036 438.729,198 438.625,198 L425.375,198 Z M438.625,197 C438.729,197 438.818,196.964 438.891,196.891 C438.964,196.818 439,196.729 439,196.625 L439,195.5 C439,195.083 438.854,194.729 438.562,194.438 C438.271,194.146 437.917,194 437.5,194 L436,194 L436,192.375 C436,192.271 435.964,192.182 435.891,192.109 C435.818,192.036 435.729,192 435.625,192 L434.375,192 C434.271,192 434.182,192.036 434.109,192.109 C434.036,192.182 434,192.271 434,192.375 L434,194 L430,194 L430,192.375 C430,192.271 429.964,192.182 429.891,192.109 C429.818,192.036 429.729,192 429.625,192 L428.375,192 C428.271,192 428.182,192.036 428.109,192.109 C428.036,192.182 428,192.271 428,192.375 L428,194 L426.5,194 C426.083,194 425.729,194.146 425.437,194.438 C425.146,194.729 425,195.083 425,195.5 L425,196.625 C425,196.729 425.036,196.818 425.109,196.891 C425.182,196.964 425.271,197 425.375,197 L438.625,197 Z" id="Page-1-Copy-2"></path>
        </g>
    </g>
</svg>